<?xml version="1.0" encoding="UTF-8" standalone="no"?>
<!-- Created with Inkscape (http://www.inkscape.org/) -->
<svg id="svg2" xmlns:rdf="http://www.w3.org/1999/02/22-rdf-syntax-ns#" xmlns="http://www.w3.org/2000/svg" xml:space="preserve" height="14" width="14" version="1.0" xmlns:cc="http://creativecommons.org/ns#" xmlns:dc="http://purl.org/dc/elements/1.1/" viewBox="0 0 14 14"><metadata id="metadata3383"><rdf:RDF><cc:Work rdf:about=""><dc:format>image/svg+xml</dc:format><dc:type rdf:resource="http://purl.org/dc/dcmitype/StillImage"/><dc:title/></cc:Work></rdf:RDF></metadata><g id="Ebene_2" transform="matrix(.036149 0 0 .036149 1.3449 .040683)"><g id="CoA_Nr._11_8_"><path id="path8" fill="#f00" d="m302.89 232.22v-227.22h-297.89v227.22c0 82.26 66.891 149.01 149.15 149.01 82.255 0.005 148.74-66.755 148.74-149.01z"/><path id="path10" d="m302.89 232.22v-227.22h-297.89v227.22c0 82.26 66.891 149.01 149.15 149.01 82.255 0.005 148.74-66.755 148.74-149.01z" stroke="#cb952b" stroke-width="10" fill="none"/></g></g><g id="Ebene_4" transform="matrix(.036149 0 0 .036149 1.3449 .040683)"><path id="path13" fill="#fff" d="m10 212.13v20.093c0 48.402 24.024 91.304 60.786 117.43l227.1-234.19v-105.46h-91.87l-196.02 202.13z"/></g><g id="Ebene_5" transform="matrix(.036149 0 0 .036149 1.3449 .040683)"><g id="g16"><g id="g18"><path id="path20" fill="#cb952b" d="m153.95 272.54 10.213-58.102c-3.3203-0.5791-6.7266-0.89843-10.213-0.89843-3.4844 0-6.8926 0.31933-10.211 0.89843l10.211 58.102z"/></g><g id="g22"><path id="path24" fill="#cb952b" d="m153.95 272.54 10.213 58.102c-3.3203 0.57812-6.7266 0.89844-10.213 0.89844-3.4844 0-6.8926-0.32032-10.211-0.89844l10.211-58.102z"/></g><g id="g26"><path id="path28" fill="#cb952b" d="m153.95 272.54-52.102-27.667c-1.5772 2.9785-2.9331 6.1191-4.0107 9.4346-1.0767 3.3144-1.8262 6.6543-2.3008 9.9893l58.413 8.2432z"/></g><g id="g30"><path id="path32" fill="#cb952b" d="m153.95 272.54 58.414 8.2412c-0.47558 3.3369-1.2236 6.6748-2.3008 9.9912-1.0772 3.3135-2.4346 6.4561-4.0098 9.4326l-52.1-27.66z"/></g><g id="g34"><path id="path36" fill="#cb952b" d="m153.95 272.54 58.414-8.2412c-0.47461-3.3369-1.2236-6.6748-2.3008-9.9912-1.0772-3.3135-2.4336-6.4561-4.0098-9.4326l-52.104 27.665z"/></g><g id="g38"><path id="path40" fill="#cb952b" d="m153.95 272.54-52.102 27.668c-1.5762-2.9795-2.9331-6.1201-4.0107-9.4356-1.0767-3.3144-1.8252-6.6543-2.3008-9.9893l58.413-8.2432z"/></g><g id="g42"><path id="path44" fill="#cb952b" d="m153.95 272.54 25.889 53.008c3.0273-1.4824 5.9697-3.2266 8.791-5.2754 2.8184-2.0488 5.3887-4.3096 7.7324-6.7285l-42.413-41.004z"/></g><g id="g46"><path id="path48" fill="#cb952b" d="m153.95 272.54-42.42-41c2.3467-2.4199 4.9141-4.6807 7.7344-6.7305 2.8198-2.0478 5.7646-3.792 8.7896-5.2744l25.89 53.007z"/></g><g id="g50"><path id="path52" fill="#cb952b" d="m153.95 272.54-42.413 41.002c2.3457 2.4199 4.9136 4.6807 7.7334 6.7295s5.7646 3.793 8.7896 5.2754l25.89-53.007z"/></g><g id="g54"><path id="path56" fill="#cb952b" d="m153.95 272.54 25.889-53.008c3.0264 1.4834 5.9697 3.2266 8.791 5.2754 2.8184 2.0488 5.3877 4.3106 7.7324 6.7285l-42.413 41.004z"/></g><g id="g58"><circle id="circle60" cy="272.54" cx="153.95" r="47.333" fill="#cb952b"/></g><g id="g62" stroke="#fff" stroke-width="2" fill="none"><path id="path64" d="m120.67 260.79c-1.2993 3.6777-2.0132 7.6318-2.0132 11.755 0 4.123 0.71387 8.0771 2.0132 11.755l20.36-11.755-20.36-11.755z"/><path id="path66" d="m127.14 295.48c5.1416 6.0039 12.26 10.257 20.351 11.754v-23.503l-20.351 11.749z"/><path id="path68" d="m147.49 237.85c-8.0903 1.4971-15.209 5.75-20.351 11.754l20.351 11.749v-23.503z"/><path id="path70" d="m187.23 284.3c1.2988-3.6777 2.0127-7.6328 2.0127-11.755 0-4.123-0.71387-8.0772-2.0127-11.755l-20.361 11.755 20.361 11.755z"/><path id="path72" d="m180.76 249.61c-5.1416-6.0029-12.26-10.257-20.351-11.754v23.504l20.351-11.75z"/><path id="path74" d="m160.41 307.24c8.0908-1.4971 15.209-5.751 20.351-11.755l-20.351-11.749v23.504z"/></g></g><g id="g76"><path id="path78" fill="#cb952b" d="m193.98 61.992c-9.7422 6.0171-16.905 18.624-16.905 18.624s-2.7783-8.875-2.8652-14.326c-0.0908-5.6812 0.006-6.4404 2.5791-15.186 0 0-7.3789 4.3848-11.555 10.73-3.0581 4.647-6.2104 14.771-6.2104 14.771s-4.0107-18.911-1.4326-30.944c2.5781-12.034 7.1631-22.636 7.1631-22.636s-22.635 6.0171-34.383 46.13 8.3091 69.339 8.3091 69.339-15.186-12.321-20.916-29.512c-5.7305-17.191-0.28662-32.664-0.28662-32.664s-27.506 22.635-24.354 52.434c2.6367 24.93 28.123 55.66 36.385 65.042h50.271c6.2998-4.6152 22.255-27.802 24.229-49.855 1.9746-22.053-4.7656-38.904-4.0107-52.147 1.2178-21.357 9.6621-27.199 18.624-35.816 0 0-14.899 0-24.642 6.0171z"/></g><path id="path80" fill="#fff" d="m175.93 112.42s8.8711 11.75 9.169 26.36c0.28613 14.04-3.4385 20.343-9.4561 29.226 0 0 4.8975-13.467 4.585-27.506-0.28711-12.894-4.2978-28.079-4.2978-28.079z"/><path id="path82" fill="#fff" d="m152.15 191.21h-4.0112s1.9189-8.1528-2.0059-18.051c-4.3135-10.878-13.246-19.607-15.147-21.711-4.6665-5.167-6.3423-8.374-6.3423-8.374s6.0171 3.7251 10.315 8.3096c4.2978 4.5845 9.3413 9.4077 13.63 17.578 3.7505 7.1436 3.561 22.249 3.561 22.249z"/><g id="g84"><path id="path86" fill="#cb952b" d="m165.77 210.87c0.40625 0.25879 0.75879 0.56934 1.0811 1 0.75195 1 0.75195 5.5 1.1279 8.5 0.36718 3 1.9946 3.125 2.7466 3.125 0.38281 0 0.64355-4.5478 2.124-8.125 0.58301-1.415 1.2891-3.04 1.9561-4.5h5.1699v-14.125h-52.063v14.125h5.1714c0.66552 1.46 1.3686 3.085 1.9536 4.5 1.478 3.5772 1.7436 8.125 2.125 8.125 0.75 0 2.375-0.125 2.75-3.125s0.375-7.5 1.125-8.5c0.32275-0.43066 0.67236-0.74121 1.0815-1h23.651z"/></g></g></svg>

